<svg xmlns="http://www.w3.org/2000/svg" viewBox="0 0 400 600" width="400" height="600" role="img" aria-label="Little Big Paws poster">
  <defs>
    <linearGradient id="bg" x1="0" y1="0" x2="0.4" y2="1"><stop offset="0" stop-color="#56ab2f"/><stop offset="1" stop-color="#a8e063"/></linearGradient>
    <linearGradient id="fade" x1="0" y1="0" x2="0" y2="1"><stop offset="0.45" stop-color="#000" stop-opacity="0"/><stop offset="1" stop-color="#000" stop-opacity="0.85"/></linearGradient>
  </defs>
  <rect width="400" height="600" fill="url(#bg)"/>
  <g fill="#ffffff" opacity="0.55"><ellipse cx="60" cy="142" rx="18" ry="15"/><circle cx="44" cy="120" r="7"/><circle cx="55" cy="112" r="7"/><circle cx="67" cy="112" r="7"/><circle cx="77" cy="120" r="7"/></g><g fill="#ffffff" opacity="0.55"><ellipse cx="150" cy="172" rx="18" ry="15"/><circle cx="134" cy="150" r="7"/><circle cx="145" cy="142" r="7"/><circle cx="157" cy="142" r="7"/><circle cx="167" cy="150" r="7"/></g><g fill="#ffffff" opacity="0.55"><ellipse cx="240" cy="142" rx="18" ry="15"/><circle cx="224" cy="120" r="7"/><circle cx="235" cy="112" r="7"/><circle cx="247" cy="112" r="7"/><circle cx="257" cy="120" r="7"/></g><g fill="#ffffff" opacity="0.55"><ellipse cx="330" cy="172" rx="18" ry="15"/><circle cx="314" cy="150" r="7"/><circle cx="325" cy="142" r="7"/><circle cx="337" cy="142" r="7"/><circle cx="347" cy="150" r="7"/></g><g fill="#ffffff" opacity="0.55"><ellipse cx="60" cy="292" rx="18" ry="15"/><circle cx="44" cy="270" r="7"/><circle cx="55" cy="262" r="7"/><circle cx="67" cy="262" r="7"/><circle cx="77" cy="270" r="7"/></g><g fill="#ffffff" opacity="0.55"><ellipse cx="150" cy="322" rx="18" ry="15"/><circle cx="134" cy="300" r="7"/><circle cx="145" cy="292" r="7"/><circle cx="157" cy="292" r="7"/><circle cx="167" cy="300" r="7"/></g><g fill="#ffffff" opacity="0.55"><ellipse cx="240" cy="292" rx="18" ry="15"/><circle cx="224" cy="270" r="7"/><circle cx="235" cy="262" r="7"/><circle cx="247" cy="262" r="7"/><circle cx="257" cy="270" r="7"/></g><g fill="#ffffff" opacity="0.55"><ellipse cx="330" cy="322" rx="18" ry="15"/><circle cx="314" cy="300" r="7"/><circle cx="325" cy="292" r="7"/><circle cx="337" cy="292" r="7"/><circle cx="347" cy="300" r="7"/></g>
  <rect width="400" height="600" fill="url(#fade)"/>
  <text x="200" y="446" text-anchor="middle" font-family="Impact, 'Arial Black', sans-serif" font-size="44" fill="#ffffff" letter-spacing="2">LITTLE BIG</text><text x="200" y="494" text-anchor="middle" font-family="Impact, 'Arial Black', sans-serif" font-size="44" fill="#ffffff" letter-spacing="2">PAWS</text>
  <text x="200" y="560" text-anchor="middle" font-family="Arial, sans-serif" font-size="15" fill="#ffffff" letter-spacing="1">EVERY STREET LEADS HOME.</text>
</svg>
