<svg xmlns="http://www.w3.org/2000/svg" viewBox="0 0 400 600" width="400" height="600" role="img" aria-label="Rangoli poster">
  <defs>
    <linearGradient id="bg" x1="0" y1="0" x2="0.4" y2="1"><stop offset="0" stop-color="#8e2de2"/><stop offset="1" stop-color="#ff6a88"/></linearGradient>
    <linearGradient id="fade" x1="0" y1="0" x2="0" y2="1"><stop offset="0.45" stop-color="#000" stop-opacity="0"/><stop offset="1" stop-color="#000" stop-opacity="0.85"/></linearGradient>
  </defs>
  <rect width="400" height="600" fill="url(#bg)"/>
  <ellipse cx="200" cy="230" rx="120" ry="34" fill="none" stroke="#ffe066" stroke-opacity="0.55" stroke-width="2" transform="rotate(0 200 230)"/><ellipse cx="200" cy="230" rx="120" ry="34" fill="none" stroke="#ffe066" stroke-opacity="0.55" stroke-width="2" transform="rotate(15 200 230)"/><ellipse cx="200" cy="230" rx="120" ry="34" fill="none" stroke="#ffe066" stroke-opacity="0.55" stroke-width="2" transform="rotate(30 200 230)"/><ellipse cx="200" cy="230" rx="120" ry="34" fill="none" stroke="#ffe066" stroke-opacity="0.55" stroke-width="2" transform="rotate(45 200 230)"/><ellipse cx="200" cy="230" rx="120" ry="34" fill="none" stroke="#ffe066" stroke-opacity="0.55" stroke-width="2" transform="rotate(60 200 230)"/><ellipse cx="200" cy="230" rx="120" ry="34" fill="none" stroke="#ffe066" stroke-opacity="0.55" stroke-width="2" transform="rotate(75 200 230)"/><ellipse cx="200" cy="230" rx="120" ry="34" fill="none" stroke="#ffe066" stroke-opacity="0.55" stroke-width="2" transform="rotate(90 200 230)"/><ellipse cx="200" cy="230" rx="120" ry="34" fill="none" stroke="#ffe066" stroke-opacity="0.55" stroke-width="2" transform="rotate(105 200 230)"/><ellipse cx="200" cy="230" rx="120" ry="34" fill="none" stroke="#ffe066" stroke-opacity="0.55" stroke-width="2" transform="rotate(120 200 230)"/><ellipse cx="200" cy="230" rx="120" ry="34" fill="none" stroke="#ffe066" stroke-opacity="0.55" stroke-width="2" transform="rotate(135 200 230)"/><ellipse cx="200" cy="230" rx="120" ry="34" fill="none" stroke="#ffe066" stroke-opacity="0.55" stroke-width="2" transform="rotate(150 200 230)"/><ellipse cx="200" cy="230" rx="120" ry="34" fill="none" stroke="#ffe066" stroke-opacity="0.55" stroke-width="2" transform="rotate(165 200 230)"/><circle cx="200" cy="230" r="22" fill="#ffe066" opacity="0.8"/>
  <rect width="400" height="600" fill="url(#fade)"/>
  <text x="200" y="470" text-anchor="middle" font-family="Impact, 'Arial Black', sans-serif" font-size="56" fill="#ffffff" letter-spacing="2">RANGOLI</text>
  <text x="200" y="560" text-anchor="middle" font-family="Arial, sans-serif" font-size="15" fill="#ffe066" letter-spacing="1">SOME HOMES ARE NEVER SOLD.</text>
</svg>
